<svg height="56" viewBox="0 0 58 56" width="58" xmlns="http://www.w3.org/2000/svg"><g id="Page-1" fill="none" fill-rule="evenodd"><g id="029---Preparing-Vegetables" fill="rgb(0,0,0)" fill-rule="nonzero"><path id="Shape" d="m44 49v1h12v-1c0-.5522847-.4477153-1-1-1h-10c-.5522847 0-1 .4477153-1 1z"/><path id="Shape" d="m24 34c-1.9338356-.1309426-3.8394028-.5349497-5.66-1.2-1.0781433-.3966092-2.1991676-.665118-3.34-.8-1 0-2.33 2.28-2.82 6-.9468559-.4238166-1.9310999-.7585935-2.94-1-2.64528929-.6643237-5.44599673-.2544641-7.79 1.14-.33440654.1793781-.5384678.5325821-.52683412.9118826.01163367.3793006.2369575.7193347.58172867.8778815s.74957701.1082846 1.04510545-.1297641c1.89375035-1.0442191 4.11343003-1.3301682 6.21-.8.7639709.1908234 1.5127004.4381715 2.24.74-3.68601709.2947425-7.13818315 1.9230557-9.71 4.58-.18931265.1877666-.29579832.4433625-.29579832.71s.10648567.5222334.29579832.71c.1877666.1893127.44336246.2957983.71.2957983s.5222334-.1064856.71-.2957983c2.2658339-2.3615304 5.33409267-3.7886275 8.6-4-3.39097323 2.0692671-5.96006776 5.2497142-7.27 9-.08009001.258623-.05189264.5386681.07814783.7761333.13004048.2374652.35080954.4120545.61185217.4838667.08941122.0145589.18058878.0145589.27 0 .46200383.017082.87548942-.2847625 1-.73 1.15323835-3.1812805 3.32600836-5.8919693 6.18-7.71.4 4 1.82 6.44 2.82 6.44h9c1.22 0 3-3.12 3-8s-1.78-8-3-8zm-2.11 13.45c-.1694502.3362797-.5134418.5488587-.89.55-.1568771.0018772-.3116796-.0359634-.45-.11-.490313-.2495756-.6869243-.8483464-.44-1.34 1.79-3.59 0-9.18-.06-9.23-.114325-.3394023-.0388967-.7140147.1978718-.9827242.2367686-.2687095.5989065-.3906928.9500001-.32.3510935.0706928.6378031.3233219.7521281.6627242.05.26 2.1 6.45-.06 10.77z"/><path id="Shape" d="m56 52h-53c-.55228475 0-1 .4477153-1 1v2c0 .5522847.44771525 1 1 1h54c.5522847 0 1-.4477153 1-1v-2c0-.5522847-.4477153-1-1-1z"/><path id="Shape" d="m39.39 37.46-15-14.95-.7.7c-.1893127.1877666-.2957983.4433625-.2957983.71s.1064856.5222334.2957983.71l14.31 14.25c4.0234699 4.0220997 10.4500136 4.3126384 14.82.67l-1.43-1.42c-3.5849325 2.8715059-8.7570041 2.5827319-12-.67z"/><path id="Rectangle-path" d="m26.268 14.436h2v2h-2z" transform="matrix(.707 -.707 .707 .707 -2.929 23.802)"/><path id="Shape" d="m11.71 8.36 1.41-1.36c.1877666-.18931265.4433625-.29579832.71-.29579832s.5222334.10648567.71.29579832c.3877236.39003745.3877236 1.01996255 0 1.41l-1.42 1.42 3.54 3.53 1.41-1.41c.1877666-.1893127.4433625-.2957983.71-.2957983s.5222334.1064856.71.2957983c.3877236.3900375.3877236 1.0199625 0 1.41l-1.42 1.42 1.42 1.41c.7800749.7754472 2.0399251.7754472 2.82 0l1.42-1.41 2.83-2.83-11.32-11.36c-.3733503-.37558779-.8804232-.58776721-1.41-.59-.5330446-.00042238-1.0442036.2119606-1.42.59l-2.82 2.82c-.37555409.37513651-.58657331.8841815-.58657331 1.415s.21101922 1.03986349.58657331 1.415z"/><path id="Shape" d="m28 19-2.12 2.12 15 15c2.4605068 2.4519729 6.3469397 2.7286631 9.13.65l-19.92-19.92z"/></g></g></svg>