<?xml version="1.0" encoding="iso-8859-1"?>
<!-- Generator: Adobe Illustrator 19.0.0, SVG Export Plug-In . SVG Version: 6.00 Build 0)  -->
<svg version="1.1" id="Capa_1" xmlns="http://www.w3.org/2000/svg" xmlns:xlink="http://www.w3.org/1999/xlink" x="0px" y="0px"
	 viewBox="0 0 512 512" style="enable-background:new 0 0 512 512;" xml:space="preserve">
<g>
	<g>
		<path d="M287,0c-24.814,0-45,21.186-45,46c0,24.814,20.186,46,45,46c24.814,0,45-21.186,45-46S311.814,0,287,0z"/>
	</g>
</g>
<g>
	<g>
		<path d="M467,302H332v135c0,24.853,20.147,45,45,45h45v15c0,8.291,6.709,15,15,15c8.291,0,15-6.709,15-15v-15h15
			c24.853,0,45-20.147,45-45v-90C512,322.147,491.853,302,467,302z"/>
	</g>
</g>
<g>
	<g>
		<path d="M30,392c-16.569,0-30,13.431-30,30c0,16.567,13.431,30,30,30h30v45c0,8.291,6.709,15,15,15s15-6.709,15-15v-45h212v-60H30
			z"/>
	</g>
</g>
<g>
	<g>
		<circle cx="75" cy="317" r="45"/>
	</g>
</g>
<g>
	<g>
		<path d="M150,302c-0.527,0-0.967,0.273-1.487,0.3c0.95,4.759,1.487,9.666,1.487,14.7c0,15.496-4.726,29.91-12.812,41.878
			c4.417,2.116,6.834,2.873,15.812,3.122l149-0.063V302H150z"/>
	</g>
</g>
<g>
	<g>
		<path d="M368.211,100.789c-5.771-5.771-13.447-8.628-24.17-8.643c-8.979,0.879-17.007,5.698-22.002,13.213l-55.576,83.364
			l-52.852,26.426c-14.866,7.418-20.878,25.483-13.433,40.283c7.236,14.414,25.737,20.684,40.239,13.403l60.029-30.015
			c4.645-2.342,8.615-5.843,11.515-10.179l37.441-56.177C367.464,200.501,377,233.152,377,266.858V272h60v-5.142
			C437,204.119,412.566,145.144,368.211,100.789z"/>
	</g>
</g>
<g>
</g>
<g>
</g>
<g>
</g>
<g>
</g>
<g>
</g>
<g>
</g>
<g>
</g>
<g>
</g>
<g>
</g>
<g>
</g>
<g>
</g>
<g>
</g>
<g>
</g>
<g>
</g>
<g>
</g>
</svg>
