<svg id="Capa_1" enable-background="new 0 0 511.999 511.999" height="512" viewBox="0 0 511.999 511.999" width="512" xmlns="http://www.w3.org/2000/svg"><g><g><path d="m83.996 410.889c15.155-15.155 18.847-25.734 23.121-37.983 4.793-13.736 10.226-29.305 30.231-49.311 20.006-20.006 35.574-25.439 49.31-30.231 8.972-3.131 17.051-5.954 26.686-13.195-20.456-18.684-48.728-26.68-80.103-22.525-31.386 4.154-62.354 20.125-87.199 44.97-24.846 24.845-40.816 55.813-44.97 87.199-3.035 22.93.421 44.201 9.79 61.979 13.486-10.223 24.836-14.184 35.152-17.784 12.249-4.273 22.827-7.964 37.982-23.119z"/><path d="m196.542 321.69c-12.248 4.273-22.826 7.964-37.98 23.119s-18.846 25.733-23.12 37.982c-4.793 13.736-10.226 29.305-30.232 49.312-20.006 20.006-35.575 25.439-49.312 30.232-8.972 3.131-17.05 5.955-26.686 13.195 16.922 15.455 39.185 23.6 64.135 23.6 5.213 0 10.544-.355 15.966-1.073 31.386-4.154 62.354-20.125 87.199-44.97 24.846-24.845 40.816-55.813 44.97-87.199 3.035-22.931-.421-44.202-9.79-61.98-13.486 10.222-24.835 14.182-35.15 17.782z"/></g><g><path d="m353.44 410.889c15.155-15.155 18.847-25.734 23.121-37.983 4.793-13.736 10.226-29.305 30.231-49.311 20.006-20.006 35.574-25.439 49.31-30.231 8.972-3.131 17.051-5.954 26.686-13.195-20.456-18.684-48.728-26.68-80.103-22.525-31.386 4.154-62.354 20.125-87.199 44.97-24.846 24.845-40.816 55.813-44.97 87.199-3.035 22.93.421 44.201 9.79 61.979 13.486-10.223 24.836-14.184 35.152-17.784 12.249-4.273 22.827-7.964 37.982-23.119z"/><path d="m465.986 321.69c-12.248 4.273-22.826 7.964-37.98 23.119s-18.846 25.733-23.12 37.982c-4.793 13.736-10.226 29.305-30.232 49.312-20.006 20.006-35.575 25.439-49.312 30.232-8.972 3.131-17.05 5.955-26.686 13.195 16.922 15.455 39.185 23.6 64.135 23.6 5.213 0 10.544-.355 15.966-1.073 31.386-4.154 62.354-20.125 87.199-44.97 24.846-24.845 40.816-55.813 44.97-87.199 3.035-22.931-.421-44.202-9.79-61.98-13.485 10.222-24.835 14.182-35.15 17.782z"/></g><g><path d="m269.646 167.187c15.155-15.155 18.847-25.734 23.121-37.983 4.793-13.736 10.226-29.305 30.231-49.311 20.006-20.006 35.574-25.439 49.31-30.231 8.972-3.131 17.051-5.954 26.686-13.195-20.456-18.684-48.728-26.68-80.103-22.525-31.386 4.154-62.354 20.125-87.199 44.97-24.846 24.845-40.816 55.813-44.97 87.199-3.035 22.93.421 44.201 9.79 61.979 13.486-10.223 24.836-14.184 35.152-17.784 12.249-4.273 22.827-7.964 37.982-23.119z"/><path d="m382.192 77.988c-12.248 4.273-22.826 7.964-37.98 23.119s-18.846 25.733-23.12 37.982c-4.793 13.736-10.226 29.305-30.232 49.312-20.006 20.006-35.575 25.439-49.312 30.232-8.972 3.131-17.05 5.955-26.686 13.195 16.922 15.455 39.185 23.6 64.135 23.6 5.213 0 10.544-.355 15.966-1.073 31.386-4.154 62.354-20.125 87.199-44.97 24.846-24.845 40.816-55.813 44.97-87.199 3.035-22.931-.421-44.202-9.79-61.98-13.485 10.222-24.835 14.183-35.15 17.782z"/></g></g></svg>