<svg id="Capa_1" enable-background="new 0 0 512.029 512.029" height="512" viewBox="0 0 512.029 512.029" width="512" xmlns="http://www.w3.org/2000/svg"><g><path d="m6.343 354.896c8.203 13.842 22.705 22.104 38.774 22.104h13.773c26.961 82.233 103.294 135.029 197.11 135.029 93.831 0 170.178-52.809 197.139-135.029h13.773c16.069 0 30.571-8.262 38.774-22.104 8.159-13.755 8.452-30.308.82-44.297-14.165-25.913-21.606-69.676-.015-109.197 7.646-13.989 7.354-30.542-.806-44.297-8.202-13.843-22.704-22.105-38.773-22.105h-13.784c-26.97-82.203-103.308-135-197.128-135-93.79 0-170.129 52.797-197.099 135h-13.784c-16.069 0-30.571 8.262-38.774 22.104-8.159 13.755-8.452 30.308-.82 44.297 21.606 39.521 14.165 83.284.015 109.197-7.647 13.99-7.354 30.543.805 44.298zm108.164-44.297c-14.165-25.913-21.606-69.676-.015-109.197 7.646-13.989 7.354-30.542-.806-44.297-5.528-9.329-14.048-15.835-23.851-19.274 29.299-78.712 106.363-107.831 166.165-107.831 59.815 0 136.894 29.119 166.194 107.831-9.803 3.439-18.323 9.944-23.851 19.274-8.159 13.755-8.452 30.308-.82 44.297 21.606 39.521 14.165 83.284.015 109.197-7.646 13.989-7.354 30.542.806 44.297 5.53 9.333 14.053 15.839 23.86 19.277-29.294 78.732-106.382 107.856-166.204 107.856-59.808 0-136.883-29.125-166.174-107.856 9.807-3.439 18.331-9.944 23.86-19.277 8.16-13.755 8.453-30.308.821-44.297z"/></g></svg>